<svg xmlns="http://www.w3.org/2000/svg" xmlns:xlink="http://www.w3.org/1999/xlink" width="851" zoomAndPan="magnify" viewBox="0 0 638.25 236.249991" height="315" preserveAspectRatio="xMidYMid meet" version="1.2"><defs><clipPath id="130a0ebe9f"><path d="M 336 0 L 636.867188 0 L 636.867188 24 L 336 24 Z M 336 0 "/></clipPath><clipPath id="34e03b06b4"><path d="M 336.996094 -18.847656 L 648.4375 -30.304688 L 649.984375 11.714844 L 338.539062 23.171875 Z M 336.996094 -18.847656 "/></clipPath><clipPath id="9bc78acb91"><path d="M 297 0 L 636.867188 0 L 636.867188 16 L 297 16 Z M 297 0 "/></clipPath><clipPath id="ed94d1ed01"><path d="M 297.738281 -33.042969 L 638.777344 -45.589844 L 640.550781 2.632812 L 299.511719 15.179688 Z M 297.738281 -33.042969 "/></clipPath></defs><g id="313d264973"><g clip-rule="nonzero" clip-path="url(#130a0ebe9f)"><g clip-rule="nonzero" clip-path="url(#34e03b06b4)"><path style=" stroke:none;fill-rule:nonzero;fill:#f2b600;fill-opacity:1;" d="M 336.996094 -18.847656 L 648.371094 -30.304688 L 649.917969 11.714844 L 338.539062 23.171875 Z M 336.996094 -18.847656 "/></g></g><g clip-rule="nonzero" clip-path="url(#9bc78acb91)"><g clip-rule="nonzero" clip-path="url(#ed94d1ed01)"><path style=" stroke:none;fill-rule:nonzero;fill:#0094d3;fill-opacity:1;" d="M 297.738281 -33.042969 L 638.6875 -45.585938 L 640.460938 2.636719 L 299.511719 15.179688 Z M 297.738281 -33.042969 "/></g></g></g></svg>