<svg xmlns="http://www.w3.org/2000/svg" xmlns:xlink="http://www.w3.org/1999/xlink" width="851" zoomAndPan="magnify" viewBox="0 0 638.25 236.249991" height="315" preserveAspectRatio="xMidYMid meet" version="1.2"><defs><filter x="0%" y="0%" width="100%" filterUnits="objectBoundingBox" id="5a23b56d7e" height="100%"><feColorMatrix values="0 0 0 0 1 0 0 0 0 1 0 0 0 0 1 0 0 0 1 0" type="matrix" in="SourceGraphic"/></filter><clipPath id="1211703797"><path d="M 67 34 L 76 34 L 76 44 L 67 44 Z M 67 34 "/></clipPath><clipPath id="df107385be"><path d="M 0.148438 21.457031 L 62.386719 0.128906 L 82.019531 57.414062 L 19.78125 78.742188 Z M 0.148438 21.457031 "/></clipPath><clipPath id="57c487deec"><path d="M 0.148438 21.457031 L 62.386719 0.128906 L 82.019531 57.414062 L 19.78125 78.742188 Z M 0.148438 21.457031 "/></clipPath><clipPath id="d7209ffd99"><path d="M 16 13 L 36 13 L 36 34 L 16 34 Z M 16 13 "/></clipPath><clipPath id="e64065e7e2"><path d="M 0.148438 21.457031 L 62.386719 0.128906 L 82.019531 57.414062 L 19.78125 78.742188 Z M 0.148438 21.457031 "/></clipPath><clipPath id="c020521df7"><path d="M 0.148438 21.457031 L 62.386719 0.128906 L 82.019531 57.414062 L 19.78125 78.742188 Z M 0.148438 21.457031 "/></clipPath><clipPath id="ae5fe796be"><path d="M 46 37 L 61 37 L 61 57 L 46 57 Z M 46 37 "/></clipPath><clipPath id="c7be0ef393"><path d="M 0.148438 21.457031 L 62.386719 0.128906 L 82.019531 57.414062 L 19.78125 78.742188 Z M 0.148438 21.457031 "/></clipPath><clipPath id="c5f542d717"><path d="M 0.148438 21.457031 L 62.386719 0.128906 L 82.019531 57.414062 L 19.78125 78.742188 Z M 0.148438 21.457031 "/></clipPath><clipPath id="50a5484517"><path d="M 25 47 L 36 47 L 36 59 L 25 59 Z M 25 47 "/></clipPath><clipPath id="5366b5185a"><path d="M 0.148438 21.457031 L 62.386719 0.128906 L 82.019531 57.414062 L 19.78125 78.742188 Z M 0.148438 21.457031 "/></clipPath><clipPath id="9f381e6347"><path d="M 0.148438 21.457031 L 62.386719 0.128906 L 82.019531 57.414062 L 19.78125 78.742188 Z M 0.148438 21.457031 "/></clipPath><clipPath id="31f5b73505"><path d="M 9 42 L 17 42 L 17 51 L 9 51 Z M 9 42 "/></clipPath><clipPath id="bcbbcd0fb9"><path d="M 0.148438 21.457031 L 62.386719 0.128906 L 82.019531 57.414062 L 19.78125 78.742188 Z M 0.148438 21.457031 "/></clipPath><clipPath id="101d9a2140"><path d="M 0.148438 21.457031 L 62.386719 0.128906 L 82.019531 57.414062 L 19.78125 78.742188 Z M 0.148438 21.457031 "/></clipPath><clipPath id="b77005d7d8"><path d="M 49 16 L 57 16 L 57 24 L 49 24 Z M 49 16 "/></clipPath><clipPath id="4b4ade75b2"><path d="M 0.148438 21.457031 L 62.386719 0.128906 L 82.019531 57.414062 L 19.78125 78.742188 Z M 0.148438 21.457031 "/></clipPath><clipPath id="5877bfc7c4"><path d="M 0.148438 21.457031 L 62.386719 0.128906 L 82.019531 57.414062 L 19.78125 78.742188 Z M 0.148438 21.457031 "/></clipPath><clipPath id="ccc6dc166e"><path d="M 34 65 L 42 65 L 42 73 L 34 73 Z M 34 65 "/></clipPath><clipPath id="142029603e"><path d="M 0.148438 21.457031 L 62.386719 0.128906 L 82.019531 57.414062 L 19.78125 78.742188 Z M 0.148438 21.457031 "/></clipPath><clipPath id="730d404bd8"><path d="M 0.148438 21.457031 L 62.386719 0.128906 L 82.019531 57.414062 L 19.78125 78.742188 Z M 0.148438 21.457031 "/></clipPath><clipPath id="9a22e1f012"><rect x="0" width="82" y="0" height="80"/></clipPath><clipPath id="29a28b520d"><path d="M 27 1 L 49 1 L 49 25 L 27 25 Z M 27 1 "/></clipPath><clipPath id="89ea2b3af4"><path d="M 57.761719 37.964844 L 13.402344 53.792969 L -0.164062 15.765625 L 44.199219 -0.0585938 Z M 57.761719 37.964844 "/></clipPath><clipPath id="a6bbeaab78"><path d="M 57.761719 37.964844 L 13.402344 53.792969 L -0.164062 15.765625 L 44.199219 -0.0585938 Z M 57.761719 37.964844 "/></clipPath><clipPath id="a2d0a34cb1"><path d="M 4 12 L 23 12 L 23 35 L 4 35 Z M 4 12 "/></clipPath><clipPath id="66d7d8b695"><path d="M 57.761719 37.964844 L 13.402344 53.792969 L -0.164062 15.765625 L 44.199219 -0.0585938 Z M 57.761719 37.964844 "/></clipPath><clipPath id="dc6bd1a5d8"><path d="M 57.761719 37.964844 L 13.402344 53.792969 L -0.164062 15.765625 L 44.199219 -0.0585938 Z M 57.761719 37.964844 "/></clipPath><clipPath id="3165ad5170"><path d="M 23 26 L 44 26 L 44 47 L 23 47 Z M 23 26 "/></clipPath><clipPath id="97911c9339"><path d="M 57.761719 37.964844 L 13.402344 53.792969 L -0.164062 15.765625 L 44.199219 -0.0585938 Z M 57.761719 37.964844 "/></clipPath><clipPath id="fbc028035b"><path d="M 57.761719 37.964844 L 13.402344 53.792969 L -0.164062 15.765625 L 44.199219 -0.0585938 Z M 57.761719 37.964844 "/></clipPath><clipPath id="f69bb78b53"><rect x="0" width="58" y="0" height="54"/></clipPath><clipPath id="0b3c66bc3a"><path d="M 0.402344 0.0195312 L 30 0.0195312 L 30 19 L 0.402344 19 Z M 0.402344 0.0195312 "/></clipPath><clipPath id="11fd6d6556"><path d="M 31 13 L 43.226562 13 L 43.226562 31 L 31 31 Z M 31 13 "/></clipPath><clipPath id="e6aec669ce"><path d="M 13 19 L 25 19 L 25 36.359375 L 13 36.359375 Z M 13 19 "/></clipPath><clipPath id="b8aa49cf81"><rect x="0" width="44" y="0" height="37"/></clipPath><clipPath id="714a5df85d"><path d="M 11 29 L 19 29 L 19 44 L 11 44 Z M 11 29 "/></clipPath><clipPath id="5cd0d7bed3"><path d="M 8.203125 22.28125 L 42.40625 11.417969 L 49.421875 33.507812 L 15.21875 44.371094 Z M 8.203125 22.28125 "/></clipPath><clipPath id="19f95b11c4"><path d="M 8.203125 22.28125 L 42.40625 11.417969 L 49.421875 33.507812 L 15.21875 44.371094 Z M 8.203125 22.28125 "/></clipPath><clipPath id="5dec5e7d0d"><path d="M 11 29 L 26 29 L 26 36 L 11 36 Z M 11 29 "/></clipPath><clipPath id="e03f2af143"><path d="M 8.203125 22.28125 L 42.40625 11.417969 L 49.421875 33.507812 L 15.21875 44.371094 Z M 8.203125 22.28125 "/></clipPath><clipPath id="2121c4f374"><path d="M 8.203125 22.28125 L 42.40625 11.417969 L 49.421875 33.507812 L 15.21875 44.371094 Z M 8.203125 22.28125 "/></clipPath><clipPath id="41af9391de"><path d="M 13 29 L 22 29 L 22 40 L 13 40 Z M 13 29 "/></clipPath><clipPath id="2d297af41a"><path d="M 8.203125 22.28125 L 42.40625 11.417969 L 49.421875 33.507812 L 15.21875 44.371094 Z M 8.203125 22.28125 "/></clipPath><clipPath id="7cebdc7b08"><path d="M 8.203125 22.28125 L 42.40625 11.417969 L 49.421875 33.507812 L 15.21875 44.371094 Z M 8.203125 22.28125 "/></clipPath><clipPath id="0570553175"><path d="M 23 17 L 29 17 L 29 31 L 23 31 Z M 23 17 "/></clipPath><clipPath id="117f518f95"><path d="M 8.203125 22.28125 L 42.40625 11.417969 L 49.421875 33.507812 L 15.21875 44.371094 Z M 8.203125 22.28125 "/></clipPath><clipPath id="f8befc6be3"><path d="M 8.203125 22.28125 L 42.40625 11.417969 L 49.421875 33.507812 L 15.21875 44.371094 Z M 8.203125 22.28125 "/></clipPath><clipPath id="5be0c1ff09"><path d="M 23 16 L 35 16 L 35 29 L 23 29 Z M 23 16 "/></clipPath><clipPath id="0372009d57"><path d="M 8.203125 22.28125 L 42.40625 11.417969 L 49.421875 33.507812 L 15.21875 44.371094 Z M 8.203125 22.28125 "/></clipPath><clipPath id="8535642fb1"><path d="M 8.203125 22.28125 L 42.40625 11.417969 L 49.421875 33.507812 L 15.21875 44.371094 Z M 8.203125 22.28125 "/></clipPath><clipPath id="7a3702266f"><path d="M 36 19 L 47 19 L 47 31 L 36 31 Z M 36 19 "/></clipPath><clipPath id="826458ea9b"><path d="M 8.203125 22.28125 L 42.40625 11.417969 L 49.421875 33.507812 L 15.21875 44.371094 Z M 8.203125 22.28125 "/></clipPath><clipPath id="f949c6c1b8"><path d="M 8.203125 22.28125 L 42.40625 11.417969 L 49.421875 33.507812 L 15.21875 44.371094 Z M 8.203125 22.28125 "/></clipPath><clipPath id="7c97decbfe"><rect x="0" width="58" y="0" height="57"/></clipPath><clipPath id="ae4b3cf70d"><path d="M 0.636719 219 L 378 219 L 378 235.503906 L 0.636719 235.503906 Z M 0.636719 219 "/></clipPath><clipPath id="5ff113cbd2"><path d="M -29.660156 234.511719 L 376.078125 219.589844 L 377.851562 267.8125 L -27.886719 282.734375 Z M -29.660156 234.511719 "/></clipPath><clipPath id="e35d13af28"><path d="M 208 219 L 636.867188 219 L 636.867188 235.503906 L 208 235.503906 Z M 208 219 "/></clipPath><clipPath id="119f7e3769"><path d="M 208.390625 236.40625 L 665.617188 219.589844 L 667.164062 261.609375 L 209.9375 278.425781 Z M 208.390625 236.40625 "/></clipPath></defs><g id="bdd86aff1f"><g mask="url(#066d42e292)" transform="matrix(1,0,0,1,325,26)"><g clip-path="url(#9a22e1f012)"><g clip-rule="nonzero" clip-path="url(#1211703797)"><g clip-rule="nonzero" clip-path="url(#df107385be)"><g clip-rule="nonzero" clip-path="url(#57c487deec)"><path style=" stroke:none;fill-rule:nonzero;fill:#0094d3;fill-opacity:1;" d="M 75.757812 40.25 C 74.933594 41.484375 74.765625 41.53125 73.457031 40.878906 C 72.859375 40.578125 72.273438 40.261719 71.566406 39.890625 C 71.09375 40.703125 70.671875 41.582031 70.101562 42.359375 C 69.84375 42.710938 69.304688 42.851562 68.890625 43.085938 C 68.765625 42.589844 68.445312 42.039062 68.5625 41.609375 C 68.785156 40.804688 69.320312 40.097656 69.605469 39.304688 C 69.710938 39.019531 69.585938 38.515625 69.375 38.273438 C 68.992188 37.832031 68.386719 37.570312 68.027344 37.109375 C 67.78125 36.792969 67.574219 36.054688 67.738281 35.886719 C 68.042969 35.582031 68.628906 35.550781 69.101562 35.425781 C 69.183594 35.40625 69.300781 35.496094 69.390625 35.550781 C 70.410156 36.167969 71.363281 36.667969 72.03125 35.066406 C 72.144531 34.796875 72.796875 34.753906 73.199219 34.605469 C 73.214844 34.976562 73.300781 35.359375 73.230469 35.714844 C 73.128906 36.222656 72.914062 36.710938 72.734375 37.246094 C 73.628906 37.914062 74.519531 38.582031 75.414062 39.25 C 75.527344 39.582031 75.640625 39.917969 75.757812 40.25 Z M 75.757812 40.25 "/></g></g></g><g clip-rule="nonzero" clip-path="url(#d7209ffd99)"><g clip-rule="nonzero" clip-path="url(#e64065e7e2)"><g clip-rule="nonzero" clip-path="url(#c020521df7)"><path style=" stroke:none;fill-rule:nonzero;fill:#f2b600;fill-opacity:1;" d="M 22.734375 25.117188 C 21.183594 24.453125 19.769531 23.847656 18.355469 23.234375 C 18.09375 23.125 17.839844 23 17.59375 22.867188 C 17.007812 22.546875 16.457031 22.15625 16.707031 21.386719 C 16.972656 20.566406 17.695312 20.375 18.425781 20.554688 C 19.929688 20.917969 21.410156 21.378906 22.898438 21.800781 C 23.292969 21.914062 23.691406 22.035156 24.371094 22.234375 C 24.164062 21.628906 24.011719 21.257812 23.910156 20.875 C 23.390625 18.945312 22.863281 17.019531 22.386719 15.082031 C 22.1875 14.273438 22.605469 13.757812 23.417969 13.71875 C 23.695312 13.707031 24.140625 13.953125 24.25 14.195312 C 25.136719 16.234375 25.964844 18.300781 26.890625 20.550781 C 27.511719 19.886719 27.980469 19.328125 28.511719 18.84375 C 29.101562 18.304688 29.703125 17.746094 30.390625 17.359375 C 30.6875 17.191406 31.316406 17.300781 31.597656 17.527344 C 31.78125 17.675781 31.738281 18.355469 31.558594 18.644531 C 30.761719 19.929688 29.878906 21.15625 29.027344 22.40625 C 28.851562 22.664062 28.679688 22.921875 28.410156 23.324219 C 29.875 23.78125 31.238281 24.179688 32.582031 24.640625 C 33.242188 24.867188 33.910156 25.144531 34.492188 25.523438 C 35.246094 26.015625 35.714844 26.722656 35.328125 27.675781 C 34.957031 28.589844 34.246094 28.976562 33.289062 28.71875 C 32.175781 28.421875 31.082031 28.054688 29.8125 27.667969 C 30.140625 28.621094 30.46875 29.488281 30.730469 30.375 C 30.875 30.871094 31.097656 31.476562 30.941406 31.902344 C 30.734375 32.46875 30.273438 33.128906 29.757812 33.332031 C 29.3125 33.507812 28.488281 33.265625 28.09375 32.914062 C 26.855469 31.796875 26.652344 30.152344 26.21875 28.636719 C 26.070312 28.113281 25.949219 27.585938 25.734375 26.753906 C 24.871094 28.019531 24.222656 29.046875 23.496094 30.015625 C 23.058594 30.601562 22.519531 31.117188 21.988281 31.621094 C 21.28125 32.296875 20.464844 32.179688 19.78125 31.648438 C 19.082031 31.105469 18.980469 30.273438 19.445312 29.546875 C 20.1875 28.398438 21.042969 27.320312 21.855469 26.21875 C 22.105469 25.878906 22.378906 25.558594 22.734375 25.117188 Z M 22.734375 25.117188 "/></g></g></g><g clip-rule="nonzero" clip-path="url(#ae5fe796be)"><g clip-rule="nonzero" clip-path="url(#c7be0ef393)"><g clip-rule="nonzero" clip-path="url(#c5f542d717)"><path style=" stroke:none;fill-rule:nonzero;fill:#f2b600;fill-opacity:1;" d="M 52.152344 44.515625 C 51.605469 42.925781 51.039062 41.34375 50.527344 39.746094 C 50.292969 39.023438 49.929688 38.054688 50.835938 37.691406 C 51.769531 37.320312 52.132812 38.328125 52.472656 38.980469 C 53.144531 40.277344 53.730469 41.621094 54.386719 43.023438 C 55.15625 42.355469 55.816406 41.664062 56.597656 41.148438 C 56.992188 40.886719 57.722656 40.707031 58.082031 40.898438 C 58.796875 41.277344 58.414062 41.976562 58.078125 42.457031 C 57.394531 43.433594 56.664062 44.382812 55.890625 45.292969 C 55.355469 45.917969 55.539062 46.261719 56.171875 46.59375 C 57.167969 47.117188 58.15625 47.65625 59.136719 48.210938 C 59.46875 48.402344 59.777344 48.640625 60.078125 48.878906 C 60.667969 49.34375 60.835938 50.03125 60.382812 50.546875 C 60.054688 50.914062 59.375 51.097656 58.84375 51.117188 C 58.367188 51.136719 57.875 50.820312 57.273438 50.609375 C 57.648438 52.058594 57.984375 53.363281 58.324219 54.664062 C 58.550781 55.527344 58.265625 56.132812 57.394531 56.367188 C 56.46875 56.613281 55.917969 56.152344 55.625 55.304688 C 54.925781 53.269531 54.230469 51.238281 53.527344 49.203125 C 53.472656 49.042969 53.378906 48.894531 53.199219 48.519531 C 52.730469 48.933594 52.3125 49.253906 51.945312 49.628906 C 51.160156 50.433594 50.421875 51.289062 49.628906 52.085938 C 48.839844 52.875 47.957031 52.96875 47.289062 52.332031 C 46.523438 51.605469 46.871094 50.804688 47.371094 50.15625 C 48.140625 49.164062 49.03125 48.261719 49.980469 47.195312 C 49.320312 46.902344 48.730469 46.636719 48.136719 46.375 C 47.71875 46.191406 47.28125 46.046875 46.878906 45.835938 C 46.34375 45.5625 45.808594 45.078125 46.210938 44.523438 C 46.507812 44.113281 47.25 43.78125 47.761719 43.820312 C 48.800781 43.898438 49.820312 44.25 50.847656 44.496094 C 51.179688 44.574219 51.511719 44.667969 51.84375 44.753906 C 51.945312 44.675781 52.050781 44.597656 52.152344 44.515625 Z M 52.152344 44.515625 "/></g></g></g><g clip-rule="nonzero" clip-path="url(#50a5484517)"><g clip-rule="nonzero" clip-path="url(#5366b5185a)"><g clip-rule="nonzero" clip-path="url(#9f381e6347)"><path style=" stroke:none;fill-rule:nonzero;fill:#0094d3;fill-opacity:1;" d="M 29.171875 51.054688 C 29.699219 50.132812 30.089844 49.25 30.667969 48.515625 C 31.007812 48.082031 31.625 47.671875 32.148438 47.632812 C 32.859375 47.578125 33.171875 48.023438 32.792969 48.835938 C 32.332031 49.804688 32.027344 50.851562 31.636719 51.917969 C 32.457031 52.230469 33.210938 52.507812 33.957031 52.800781 C 34.347656 52.957031 34.855469 53.039062 35.082031 53.332031 C 35.410156 53.757812 35.792969 54.433594 35.660156 54.832031 C 35.535156 55.199219 34.726562 55.589844 34.269531 55.539062 C 33.269531 55.429688 32.292969 55.074219 31.328125 54.757812 C 30.640625 54.535156 30.222656 54.636719 29.90625 55.347656 C 29.59375 56.050781 29.183594 56.71875 28.742188 57.347656 C 28.335938 57.921875 27.734375 58.347656 27.027344 57.941406 C 26.328125 57.539062 26.347656 56.867188 26.695312 56.1875 C 27.035156 55.53125 27.316406 54.839844 27.683594 54.203125 C 28.066406 53.546875 27.898438 53.160156 27.222656 52.910156 C 26.394531 52.605469 25.628906 52.023438 25.957031 51.140625 C 26.320312 50.179688 27.324219 50.574219 28.101562 50.71875 C 28.441406 50.785156 28.765625 50.925781 29.171875 51.054688 Z M 29.171875 51.054688 "/></g></g></g><g clip-rule="nonzero" clip-path="url(#31f5b73505)"><g clip-rule="nonzero" clip-path="url(#bcbbcd0fb9)"><g clip-rule="nonzero" clip-path="url(#101d9a2140)"><path style=" stroke:none;fill-rule:nonzero;fill:#6ac49c;fill-opacity:1;" d="M 9.144531 47.683594 C 8.574219 46.011719 10.058594 43.234375 11.855469 42.699219 C 13.765625 42.125 15.929688 43.640625 16.582031 45.367188 C 17.25 47.140625 15.980469 49.320312 14.066406 49.976562 C 11.957031 50.703125 9.832031 49.710938 9.144531 47.683594 Z M 11.746094 47.074219 C 11.84375 47.210938 11.945312 47.351562 12.042969 47.492188 C 12.546875 47.339844 13.074219 47.230469 13.535156 46.996094 C 13.644531 46.9375 13.640625 46.351562 13.492188 46.183594 C 13.300781 45.964844 12.742188 45.746094 12.632812 45.84375 C 12.265625 46.175781 12.03125 46.652344 11.746094 47.074219 Z M 11.746094 47.074219 "/></g></g></g><g clip-rule="nonzero" clip-path="url(#b77005d7d8)"><g clip-rule="nonzero" clip-path="url(#4b4ade75b2)"><g clip-rule="nonzero" clip-path="url(#5877bfc7c4)"><path style=" stroke:none;fill-rule:nonzero;fill:#6ac49c;fill-opacity:1;" d="M 54.015625 23.539062 C 51.878906 24.371094 49.929688 23.097656 49.382812 21.292969 C 48.832031 19.472656 49.132812 17.824219 51.609375 16.925781 C 53.339844 16.296875 55.589844 17.160156 56.0625 18.800781 C 56.5625 20.539062 56.3125 22.976562 54.015625 23.539062 Z M 52.105469 19.050781 C 51.835938 19.71875 51.472656 20.363281 51.558594 20.429688 C 52.042969 20.804688 52.636719 21.035156 53.191406 21.316406 C 53.359375 20.835938 53.761719 20.277344 53.636719 19.890625 C 53.527344 19.558594 52.820312 19.417969 52.105469 19.050781 Z M 52.105469 19.050781 "/></g></g></g><g clip-rule="nonzero" clip-path="url(#ccc6dc166e)"><g clip-rule="nonzero" clip-path="url(#142029603e)"><g clip-rule="nonzero" clip-path="url(#730d404bd8)"><path style=" stroke:none;fill-rule:nonzero;fill:#6ac49c;fill-opacity:1;" d="M 36.914062 65.863281 C 38.800781 65.21875 40.339844 66.03125 41.121094 67.722656 C 41.863281 69.320312 40.070312 71.789062 38.589844 72.238281 C 36.984375 72.726562 35.335938 72.011719 34.859375 70.40625 C 34.289062 68.488281 34.523438 66.550781 36.914062 65.863281 Z M 37.375 69.546875 C 37.519531 69.597656 37.660156 69.644531 37.800781 69.695312 C 38.011719 69.367188 38.222656 69.039062 38.433594 68.710938 C 38.101562 68.605469 37.765625 68.5 37.433594 68.398438 C 37.414062 68.78125 37.394531 69.164062 37.375 69.546875 Z M 37.375 69.546875 "/></g></g></g></g><mask id="066d42e292"><g filter="url(#5a23b56d7e)"><rect x="0" width="638.25" y="0" height="236.249991" style="fill:#000000;fill-opacity:0.4;stroke:none;"/></g></mask></g><g mask="url(#3b774fd719)" transform="matrix(1,0,0,1,566,80)"><g clip-path="url(#f69bb78b53)"><g clip-rule="nonzero" clip-path="url(#29a28b520d)"><g clip-rule="nonzero" clip-path="url(#89ea2b3af4)"><g clip-rule="nonzero" clip-path="url(#a6bbeaab78)"><path style=" stroke:none;fill-rule:nonzero;fill:#0094d3;fill-opacity:1;" d="M 36.808594 7.367188 C 36.941406 6.597656 37.03125 5.785156 37.230469 5 C 37.6875 3.210938 38.867188 2.097656 40.632812 1.625 C 42.273438 1.183594 43.847656 2.484375 44.082031 4.417969 C 44.285156 6.070312 43.839844 7.597656 43.191406 9.085938 C 43.050781 9.402344 42.816406 9.679688 42.625 9.976562 C 42.699219 10.03125 42.773438 10.089844 42.851562 10.148438 C 43.316406 10.078125 43.785156 9.992188 44.253906 9.945312 C 46.089844 9.765625 47.773438 10.703125 48.375 12.089844 C 49.261719 14.136719 47.78125 15.804688 45.988281 16.078125 C 44.71875 16.273438 43.425781 16.296875 42.082031 16.398438 C 42.25 17.15625 42.496094 17.984375 42.601562 18.832031 C 42.769531 20.167969 42.667969 21.480469 41.835938 22.632812 C 40.394531 24.621094 38.382812 24.5 37 22.25 C 36.214844 20.972656 36.167969 19.5625 36.265625 17.996094 C 35.933594 18.140625 35.671875 18.25 35.417969 18.371094 C 33.984375 19.078125 32.5 19.546875 30.863281 19.410156 C 27.933594 19.160156 27.214844 16.355469 28.582031 14.253906 C 29.199219 13.304688 30.027344 12.546875 31.136719 12.15625 C 31.4375 12.046875 31.703125 11.832031 31.910156 11.710938 C 31.535156 10.96875 31.152344 10.285156 30.847656 9.566406 C 30.363281 8.445312 30.527344 7.375 31.441406 6.558594 C 32.351562 5.742188 33.472656 5.59375 34.585938 6.089844 C 35.367188 6.4375 36.074219 6.9375 36.808594 7.367188 Z M 36.910156 14.253906 C 35.027344 13.03125 31.808594 14.160156 30.828125 15.472656 C 30.605469 15.769531 30.558594 16.203125 30.429688 16.570312 C 30.792969 16.695312 31.160156 16.929688 31.519531 16.917969 C 33.703125 16.84375 35.316406 15.609375 36.910156 14.253906 Z M 39.480469 10.261719 C 40.40625 8.859375 41.292969 7.441406 41.425781 5.726562 C 41.464844 5.261719 41.273438 4.777344 41.1875 4.304688 C 40.746094 4.636719 40.070312 4.882812 39.898438 5.320312 C 39.289062 6.898438 39.289062 8.574219 39.480469 10.261719 Z M 39.65625 21.59375 C 40.726562 20.691406 40.746094 18.148438 39.695312 16.414062 C 38.542969 18.164062 38.523438 20.671875 39.65625 21.59375 Z M 41.886719 13.101562 C 41.902344 13.261719 41.921875 13.417969 41.9375 13.574219 C 43.144531 13.554688 44.347656 13.546875 45.550781 13.503906 C 45.6875 13.5 45.90625 13.335938 45.925781 13.21875 C 45.949219 13.089844 45.8125 12.859375 45.6875 12.804688 C 45.390625 12.671875 45.046875 12.515625 44.746094 12.558594 C 43.785156 12.691406 42.839844 12.914062 41.886719 13.101562 Z M 36.175781 11.054688 C 35.269531 9.964844 34.71875 8.726562 33.21875 8.445312 C 33.320312 9.636719 34.886719 11.074219 36.175781 11.054688 Z M 36.175781 11.054688 "/></g></g></g><g clip-rule="nonzero" clip-path="url(#a2d0a34cb1)"><g clip-rule="nonzero" clip-path="url(#66d7d8b695)"><g clip-rule="nonzero" clip-path="url(#dc6bd1a5d8)"><path style=" stroke:none;fill-rule:nonzero;fill:#6ac49c;fill-opacity:1;" d="M 12.230469 26.96875 C 11.449219 27.695312 10.785156 28.441406 9.992188 29.011719 C 9.394531 29.441406 8.660156 29.800781 7.945312 29.910156 C 5.878906 30.226562 4.5 28.832031 4.699219 26.75 C 4.847656 25.222656 5.472656 23.917969 6.464844 23.03125 C 5.886719 22.09375 5.222656 21.285156 4.855469 20.355469 C 4.433594 19.285156 4.570312 18.117188 5.175781 17.109375 C 5.832031 16.007812 6.742188 15.621094 8.121094 16.183594 C 8.890625 16.492188 9.585938 16.976562 10.179688 17.304688 C 10.511719 16.140625 10.796875 14.910156 11.21875 13.734375 C 11.535156 12.855469 12.277344 12.308594 13.234375 12.363281 C 14.199219 12.417969 14.84375 13.023438 15.234375 13.921875 C 15.851562 15.355469 16.039062 16.855469 16.011719 18.402344 C 16.011719 18.570312 16.035156 18.738281 16.050781 18.945312 C 16.90625 18.730469 17.703125 18.46875 18.519531 18.347656 C 19.660156 18.183594 20.75 18.363281 21.710938 19.089844 C 23.125 20.15625 23.230469 21.832031 21.769531 22.855469 C 20.898438 23.464844 19.816406 23.785156 18.800781 24.171875 C 18.363281 24.339844 17.859375 24.34375 17.3125 24.433594 C 17.625 25.101562 17.898438 25.738281 18.21875 26.355469 C 19.308594 28.472656 19.3125 30.597656 18.285156 32.730469 C 17.582031 34.1875 15.988281 34.503906 14.707031 33.496094 C 13.527344 32.578125 12.980469 31.3125 12.695312 29.910156 C 12.503906 28.953125 12.386719 27.976562 12.230469 26.96875 Z M 16.363281 31.773438 C 17.742188 29.574219 16.425781 26.078125 14.914062 24.679688 C 14.152344 26.351562 15.082031 31.027344 16.363281 31.773438 Z M 7.214844 27.453125 C 8.449219 27.273438 10.515625 25.261719 10.652344 24.144531 C 9.714844 24.039062 8.082031 24.6875 7.625 25.410156 C 7.234375 26.023438 6.917969 26.683594 7.214844 27.453125 Z M 10.335938 21.492188 C 10.078125 20.484375 8.101562 18.636719 7.171875 18.535156 C 6.683594 20.191406 8.496094 21.882812 10.335938 21.492188 Z M 13.144531 15.15625 C 12.289062 16.953125 12.527344 18.738281 13.253906 20.722656 C 13.796875 18.722656 13.632812 16.9375 13.144531 15.15625 Z M 16.644531 21.761719 C 17.789062 21.714844 18.957031 21.78125 19.933594 21.019531 C 18.648438 20.472656 17.617188 20.996094 16.644531 21.761719 Z M 16.644531 21.761719 "/></g></g></g><g clip-rule="nonzero" clip-path="url(#3165ad5170)"><g clip-rule="nonzero" clip-path="url(#97911c9339)"><g clip-rule="nonzero" clip-path="url(#fbc028035b)"><path style=" stroke:none;fill-rule:nonzero;fill:#f2b600;fill-opacity:1;" d="M 35.285156 40.527344 C 34.953125 41.75 34.6875 43.1875 34.148438 44.515625 C 33.855469 45.246094 33.183594 45.894531 32.542969 46.40625 C 31.320312 47.375 29.675781 46.582031 29.433594 45.039062 C 29.199219 43.542969 29.210938 42.011719 29.113281 40.484375 C 28.449219 40.566406 27.683594 40.730469 26.917969 40.730469 C 26.292969 40.730469 25.613281 40.652344 25.058594 40.398438 C 23.679688 39.769531 23.148438 38.527344 24.300781 36.933594 C 25.089844 35.84375 26.21875 35.214844 27.378906 34.824219 C 26.894531 33.996094 26.351562 33.207031 25.953125 32.351562 C 25.414062 31.179688 25.5625 30.03125 26.503906 29.109375 C 27.476562 28.164062 28.664062 28.25 29.765625 28.796875 C 30.761719 29.289062 31.667969 29.964844 32.617188 30.566406 C 32.859375 29.917969 33.09375 29.195312 33.398438 28.503906 C 33.84375 27.496094 34.613281 26.867188 35.75 26.855469 C 36.894531 26.84375 37.726562 27.429688 38.355469 28.347656 C 39.523438 30.0625 38.738281 32.421875 37.457031 33.898438 C 37.242188 34.144531 37.011719 34.378906 36.75 34.65625 C 38.511719 35.226562 40.152344 35.917969 41.476562 37.183594 C 42.339844 38.015625 43.1875 38.847656 43.53125 40.070312 C 43.820312 41.109375 43.394531 42.085938 42.402344 42.511719 C 41.058594 43.09375 39.71875 42.898438 38.46875 42.335938 C 37.320312 41.820312 36.265625 41.09375 35.285156 40.527344 Z M 32.007812 33.839844 C 32.019531 33.851562 32.03125 33.871094 32.046875 33.882812 C 32.054688 33.886719 32.074219 33.882812 32.085938 33.878906 C 32.058594 33.867188 32.035156 33.855469 32.007812 33.839844 C 31.121094 32.453125 29.914062 31.484375 28.328125 30.929688 C 28.152344 32.378906 30.105469 33.863281 32.007812 33.839844 Z M 41.535156 40.4375 C 40.140625 38.183594 38.144531 36.898438 35.636719 36.144531 C 36.464844 38.964844 39.625 41.257812 41.535156 40.4375 Z M 32.554688 38.097656 C 31.53125 39.867188 31.636719 41.824219 31.757812 43.78125 C 32.855469 42.027344 32.847656 40.09375 32.554688 38.097656 Z M 34.886719 32.609375 C 34.976562 32.640625 35.0625 32.671875 35.152344 32.703125 C 35.355469 32.53125 35.597656 32.386719 35.757812 32.183594 C 36.3125 31.472656 36.828125 30.726562 36.40625 29.761719 C 36.316406 29.558594 36.078125 29.414062 35.910156 29.242188 C 35.761719 29.394531 35.519531 29.527344 35.480469 29.707031 C 35.253906 30.667969 35.078125 31.640625 34.886719 32.609375 Z M 26.691406 38.214844 C 27.707031 38.46875 28.945312 38.039062 29.925781 37.09375 C 28.46875 37.078125 27.339844 37.46875 26.691406 38.214844 Z M 26.691406 38.214844 "/></g></g></g></g><mask id="3b774fd719"><g filter="url(#5a23b56d7e)"><rect x="0" width="638.25" y="0" height="236.249991" style="fill:#000000;fill-opacity:0.4;stroke:none;"/></g></mask></g><g mask="url(#c3bcf35cda)" transform="matrix(1,0,0,1,61,183)"><g clip-path="url(#b8aa49cf81)"><g clip-rule="nonzero" clip-path="url(#0b3c66bc3a)"><path style=" stroke:none;fill-rule:nonzero;fill:#f2b600;fill-opacity:1;" d="M 17.28125 4.394531 C 18.96875 5.117188 20.203125 6.125 21.0625 7.507812 C 21.765625 8.632812 22.332031 9.847656 22.003906 11.25 C 21.492188 13.445312 19.730469 14.519531 17.554688 13.972656 C 15.316406 13.410156 13.457031 11.082031 13.402344 8.753906 C 13.386719 7.988281 13.398438 7.222656 13.398438 6.410156 C 11.609375 6.734375 10.0625 7.542969 8.90625 9.144531 C 9.394531 9.332031 9.8125 9.480469 10.222656 9.65625 C 13.082031 10.867188 13.574219 15.046875 11.765625 17.074219 C 10.402344 18.597656 7.898438 18.398438 6.707031 16.46875 C 6.167969 15.597656 5.984375 14.484375 5.753906 13.453125 C 5.625 12.894531 5.730469 12.28125 5.730469 11.574219 C 4.472656 12.207031 3.769531 13.152344 3.222656 14.226562 C 2.828125 15.007812 2.472656 15.808594 2.132812 16.613281 C 1.925781 17.109375 1.554688 17.332031 1.078125 17.226562 C 0.511719 17.09375 0.355469 16.628906 0.5 16.101562 C 0.972656 14.386719 1.507812 12.703125 2.644531 11.273438 C 3.453125 10.257812 4.484375 9.625 5.691406 9.199219 C 6.027344 9.078125 6.40625 8.832031 6.582031 8.53125 C 8.285156 5.683594 10.863281 4.3125 14.078125 3.933594 C 14.398438 3.894531 14.796875 3.679688 14.984375 3.421875 C 17.082031 0.578125 19.914062 -0.226562 23.257812 0.402344 C 24.949219 0.722656 26.582031 1.289062 27.839844 2.488281 C 28.574219 3.1875 29.113281 4.121094 29.621094 5.019531 C 29.945312 5.59375 29.628906 6.136719 29.078125 6.476562 C 28.527344 6.808594 28.007812 6.644531 27.554688 6.269531 C 27.328125 6.082031 27.136719 5.835938 26.992188 5.578125 C 25.929688 3.667969 24.078125 3.125 22.125 2.742188 C 20.644531 2.449219 19.3125 2.804688 18.089844 3.640625 C 17.835938 3.8125 17.632812 4.0625 17.28125 4.394531 Z M 15.980469 6.546875 C 15.921875 7.136719 15.753906 7.734375 15.828125 8.304688 C 16 9.597656 16.398438 10.816406 17.765625 11.367188 C 18.722656 11.753906 19.550781 11.316406 19.546875 10.476562 C 19.535156 9.003906 17.625 6.851562 15.980469 6.546875 Z M 8.242188 11.503906 C 7.726562 12.308594 8.148438 13.144531 8.214844 13.957031 C 8.246094 14.351562 8.457031 14.773438 8.691406 15.109375 C 9.136719 15.753906 9.730469 15.679688 10.066406 14.980469 C 10.78125 13.5 9.941406 11.882812 8.242188 11.503906 Z M 8.242188 11.503906 "/></g><g clip-rule="nonzero" clip-path="url(#11fd6d6556)"><path style=" stroke:none;fill-rule:nonzero;fill:#6ac49c;fill-opacity:1;" d="M 35.367188 18.78125 C 36.613281 18.542969 37.789062 18.1875 38.980469 18.125 C 40.039062 18.066406 41.125 18.339844 41.980469 19.078125 C 43.875 20.71875 43.128906 23.65625 41.238281 24.757812 C 39.644531 25.683594 37.171875 25.980469 34.921875 24.140625 C 34.382812 25.191406 34.398438 26.214844 34.839844 27.292969 C 35.082031 27.882812 35.222656 28.523438 35.347656 29.152344 C 35.464844 29.730469 35.148438 30.1875 34.617188 30.28125 C 34.269531 30.34375 33.734375 30.199219 33.507812 29.949219 C 32.609375 28.945312 32.023438 27.753906 31.90625 26.394531 C 31.753906 24.617188 32.269531 23.003906 33.167969 21.476562 C 33.394531 21.097656 33.433594 20.550781 33.40625 20.089844 C 33.242188 17.566406 33.957031 15.398438 35.914062 13.730469 C 36.207031 13.480469 36.609375 13.320312 36.988281 13.234375 C 37.195312 13.1875 37.550781 13.328125 37.664062 13.5 C 37.746094 13.625 37.597656 14.007812 37.441406 14.15625 C 36.085938 15.457031 35.320312 16.988281 35.367188 18.78125 Z M 38.910156 20.78125 C 38.882812 20.714844 38.855469 20.644531 38.828125 20.574219 C 38.082031 20.871094 37.324219 21.136719 36.605469 21.476562 C 36.214844 21.660156 36.191406 21.972656 36.515625 22.324219 C 37.234375 23.105469 38.746094 23.390625 39.761719 22.746094 C 40.148438 22.5 40.511719 21.894531 40.515625 21.445312 C 40.523438 20.867188 39.890625 20.769531 39.359375 20.78125 C 39.210938 20.785156 39.058594 20.78125 38.910156 20.78125 Z M 38.910156 20.78125 "/></g><g clip-rule="nonzero" clip-path="url(#e6aec669ce)"><path style=" stroke:none;fill-rule:nonzero;fill:#0094d3;fill-opacity:1;" d="M 19.921875 32.3125 C 18.71875 32.328125 17.519531 32.503906 16.382812 32.3125 C 15.078125 32.09375 14.058594 31.292969 13.695312 29.894531 C 13.398438 28.742188 14.007812 27.378906 15.140625 26.535156 C 16.835938 25.269531 19.363281 25.328125 21.347656 26.921875 C 21.464844 26.324219 21.664062 25.78125 21.652344 25.242188 C 21.625 24.054688 21.519531 22.863281 21.382812 21.675781 C 21.277344 20.78125 21.578125 20.042969 22.214844 19.898438 C 22.882812 19.746094 23.546875 20.199219 23.75 21.097656 C 24.40625 24.035156 24.214844 26.882812 22.777344 29.59375 C 22.472656 30.171875 22.292969 30.828125 22.132812 31.464844 C 21.523438 33.90625 19.875 35.328125 17.621094 36.179688 C 17.441406 36.25 17.207031 36.3125 17.039062 36.253906 C 16.722656 36.148438 16.433594 35.953125 16.132812 35.792969 C 16.371094 35.59375 16.585938 35.351562 16.851562 35.207031 C 18.191406 34.5 19.335938 33.609375 19.921875 32.3125 Z M 17.683594 30.109375 C 17.695312 30.144531 17.703125 30.179688 17.714844 30.214844 C 18.304688 30.039062 18.917969 29.914062 19.480469 29.671875 C 20.269531 29.328125 20.316406 28.804688 19.617188 28.292969 C 18.929688 27.785156 18.128906 27.738281 17.324219 27.925781 C 16.550781 28.109375 15.921875 28.757812 15.964844 29.242188 C 16.007812 29.757812 16.671875 30.105469 17.609375 30.109375 C 17.632812 30.109375 17.65625 30.109375 17.683594 30.109375 Z M 17.683594 30.109375 "/></g></g><mask id="c3bcf35cda"><g filter="url(#5a23b56d7e)"><rect x="0" width="638.25" y="0" height="236.249991" style="fill:#000000;fill-opacity:0.4;stroke:none;"/></g></mask></g><g mask="url(#5a1b01ce17)" transform="matrix(1,0,0,1,42,43)"><g clip-path="url(#7c97decbfe)"><g clip-rule="nonzero" clip-path="url(#714a5df85d)"><g clip-rule="nonzero" clip-path="url(#5cd0d7bed3)"><g clip-rule="nonzero" clip-path="url(#19f95b11c4)"><path style=" stroke:none;fill-rule:evenodd;fill:#f2b600;fill-opacity:1;" d="M 11.882812 31.015625 C 12.085938 31.652344 12.320312 32.28125 12.566406 32.902344 C 12.953125 33.867188 13.390625 34.816406 13.824219 35.765625 C 14.445312 37.140625 15.058594 38.523438 15.570312 39.933594 L 16.230469 42.46875 C 16.425781 43.082031 17.082031 43.421875 17.695312 43.226562 C 18.304688 43.03125 18.644531 42.375 18.453125 41.761719 C 18.261719 41.191406 18.136719 40.59375 17.972656 40.011719 C 17.886719 39.722656 17.796875 39.433594 17.6875 39.152344 C 16.90625 37.050781 15.851562 35.042969 15.007812 32.957031 C 14.660156 32.105469 14.363281 31.238281 14.117188 30.351562 C 13.933594 29.734375 13.285156 29.382812 12.667969 29.566406 C 12.050781 29.75 11.699219 30.398438 11.882812 31.015625 Z M 11.882812 31.015625 "/></g></g></g><g clip-rule="nonzero" clip-path="url(#5dec5e7d0d)"><g clip-rule="nonzero" clip-path="url(#e03f2af143)"><g clip-rule="nonzero" clip-path="url(#2121c4f374)"><path style=" stroke:none;fill-rule:evenodd;fill:#f2b600;fill-opacity:1;" d="M 13.5 31.667969 C 13.902344 31.792969 14.128906 31.867188 14.363281 31.964844 C 14.597656 32.058594 14.839844 32.175781 15.25 32.367188 L 16.378906 32.90625 C 16.976562 33.203125 17.578125 33.480469 18.195312 33.71875 C 18.625 33.886719 19.066406 34.035156 19.519531 34.148438 C 20.503906 34.398438 21.351562 34.507812 22.160156 34.800781 C 22.59375 34.960938 23.011719 35.183594 23.445312 35.542969 C 23.949219 35.945312 24.683594 35.863281 25.085938 35.359375 C 25.484375 34.859375 25.40625 34.125 24.902344 33.722656 C 24.226562 33.195312 23.578125 32.871094 22.90625 32.648438 C 22.027344 32.355469 21.113281 32.246094 20.046875 32 C 19.585938 31.890625 19.140625 31.742188 18.710938 31.566406 C 18.25 31.378906 17.804688 31.160156 17.355469 30.9375 L 16.214844 30.359375 C 15.773438 30.136719 15.511719 30.003906 15.257812 29.890625 C 14.976562 29.761719 14.699219 29.65625 14.210938 29.484375 C 14.085938 29.441406 13.539062 29.296875 13.199219 29.304688 C 12.777344 29.3125 12.472656 29.496094 12.28125 29.675781 C 12.003906 29.9375 11.847656 30.292969 11.921875 30.785156 C 12.03125 31.417969 12.636719 31.84375 13.269531 31.734375 C 13.351562 31.722656 13.425781 31.699219 13.5 31.667969 Z M 14.234375 30.683594 C 14.242188 30.589844 14.238281 30.496094 14.21875 30.390625 C 14.238281 30.488281 14.242188 30.585938 14.234375 30.683594 Z M 14.234375 30.683594 "/></g></g></g><g clip-rule="nonzero" clip-path="url(#41af9391de)"><g clip-rule="nonzero" clip-path="url(#2d297af41a)"><g clip-rule="nonzero" clip-path="url(#7cebdc7b08)"><path style=" stroke:none;fill-rule:evenodd;fill:#f2b600;fill-opacity:1;" d="M 15.992188 39.015625 C 16.023438 38.824219 16.167969 38.621094 16.316406 38.414062 C 16.703125 37.882812 17.203125 37.367188 17.472656 37 C 18.253906 36 18.917969 34.777344 19.707031 33.695312 C 20.160156 33.070312 20.664062 32.5 21.269531 32.074219 C 21.789062 31.695312 21.902344 30.964844 21.527344 30.445312 C 21.148438 29.925781 20.417969 29.8125 19.898438 30.191406 C 19.296875 30.644531 18.773438 31.199219 18.300781 31.816406 C 17.363281 33.03125 16.621094 34.484375 15.730469 35.65625 C 15.386719 36.082031 14.730469 36.710938 14.285156 37.335938 C 13.988281 37.753906 13.789062 38.191406 13.703125 38.585938 C 13.585938 39.21875 14 39.828125 14.632812 39.945312 C 15.265625 40.066406 15.875 39.648438 15.992188 39.015625 Z M 15.992188 39.015625 "/></g></g></g><g clip-rule="nonzero" clip-path="url(#0570553175)"><g clip-rule="nonzero" clip-path="url(#117f518f95)"><g clip-rule="nonzero" clip-path="url(#f8befc6be3)"><path style=" stroke:none;fill-rule:evenodd;fill:#0094d3;fill-opacity:1;" d="M 23.375 19.867188 C 23.4375 20.019531 23.515625 20.207031 23.59375 20.386719 L 24.6875 23.136719 C 25.117188 24.375 25.644531 25.667969 26.0625 26.972656 C 26.328125 27.796875 26.542969 28.628906 26.667969 29.453125 C 26.773438 30.085938 27.375 30.515625 28.011719 30.410156 C 28.644531 30.304688 29.074219 29.703125 28.96875 29.066406 C 28.835938 28.359375 28.648438 27.648438 28.425781 26.941406 C 27.9375 25.398438 27.289062 23.863281 26.753906 22.402344 L 25.707031 19.527344 C 25.546875 19.105469 25.445312 18.800781 25.386719 18.65625 C 25.230469 18.246094 24.984375 18.089844 24.917969 18.042969 C 24.6875 17.878906 22.988281 17.585938 23.105469 19.21875 C 23.125 19.46875 23.226562 19.691406 23.375 19.867188 Z M 25.429688 19.082031 C 25.429688 19.058594 25.425781 19.03125 25.421875 19.003906 C 25.425781 19.03125 25.425781 19.054688 25.429688 19.082031 Z M 25.429688 19.082031 "/></g></g></g><g clip-rule="nonzero" clip-path="url(#5be0c1ff09)"><g clip-rule="nonzero" clip-path="url(#0372009d57)"><g clip-rule="nonzero" clip-path="url(#8535642fb1)"><path style=" stroke:none;fill-rule:evenodd;fill:#0094d3;fill-opacity:1;" d="M 26.074219 19.703125 C 26.265625 19.582031 26.542969 19.402344 26.679688 19.308594 C 27.082031 19.035156 27.746094 18.660156 28.433594 18.457031 C 28.703125 18.375 28.976562 18.316406 29.230469 18.320312 C 29.378906 18.324219 29.527344 18.332031 29.636719 18.421875 C 29.667969 18.445312 29.652344 18.488281 29.65625 18.527344 C 29.660156 18.601562 29.660156 18.679688 29.648438 18.757812 C 29.625 18.988281 29.558594 19.230469 29.472656 19.472656 C 29.203125 20.25 28.742188 21.023438 28.484375 21.449219 C 28.484375 21.449219 28.042969 22.101562 28.042969 22.101562 C 27.832031 22.421875 27.40625 22.75 27.261719 22.972656 C 27.171875 23.050781 27.101562 23.128906 27.050781 23.195312 C 26.839844 23.484375 26.78125 23.777344 26.800781 24.027344 C 26.816406 24.292969 26.914062 24.550781 27.136719 24.78125 C 27.238281 24.886719 28.125 25.457031 28.859375 24.652344 C 28.902344 24.605469 28.957031 24.542969 29.011719 24.472656 C 29.242188 24.367188 29.550781 24.230469 29.746094 24.171875 C 30.140625 24.046875 30.886719 23.875 31.605469 23.863281 C 31.824219 23.859375 32.039062 23.871094 32.238281 23.910156 C 32.363281 23.9375 32.496094 23.933594 32.546875 24.035156 C 32.808594 24.535156 32.484375 24.992188 32.105469 25.371094 C 31.550781 25.921875 30.757812 26.324219 30.152344 26.433594 C 30 26.460938 29.492188 26.667969 29.1875 26.6875 C 29.160156 26.640625 29.128906 26.59375 29.09375 26.550781 L 29.09375 26.546875 L 29.089844 26.542969 C 28.796875 26.175781 28.296875 26.007812 27.824219 26.160156 C 27.210938 26.351562 26.871094 27.007812 27.066406 27.621094 C 27.265625 28.230469 27.757812 28.65625 28.484375 28.800781 C 29.179688 28.941406 30.175781 28.773438 30.570312 28.699219 C 31.75 28.472656 33.355469 27.574219 34.207031 26.382812 C 34.929688 25.371094 35.167969 24.183594 34.527344 22.988281 C 34.167969 22.316406 33.515625 21.894531 32.683594 21.730469 C 32.125 21.617188 31.472656 21.632812 30.863281 21.703125 C 31.285156 20.914062 31.738281 19.894531 31.847656 19.023438 C 31.96875 18.054688 31.707031 17.226562 31.03125 16.679688 C 30.328125 16.109375 29.367188 15.972656 28.359375 16.152344 C 27.238281 16.355469 26.0625 16.960938 25.398438 17.398438 C 24.992188 17.667969 24.328125 18.027344 24.023438 18.425781 C 23.621094 18.957031 23.523438 19.554688 23.894531 20.226562 C 24.207031 20.785156 24.917969 20.984375 25.480469 20.671875 C 25.84375 20.464844 26.058594 20.09375 26.074219 19.703125 Z M 29.089844 26.542969 C 29.03125 26.46875 28.976562 26.441406 28.957031 26.527344 C 28.929688 26.660156 29.03125 26.699219 29.183594 26.6875 C 29.15625 26.636719 29.125 26.589844 29.09375 26.550781 Z M 29.089844 26.542969 "/></g></g></g><g clip-rule="nonzero" clip-path="url(#7a3702266f)"><g clip-rule="nonzero" clip-path="url(#826458ea9b)"><g clip-rule="nonzero" clip-path="url(#f949c6c1b8)"><path style=" stroke:none;fill-rule:evenodd;fill:#6ac49c;fill-opacity:1;" d="M 42.75 19.847656 C 41.761719 19.292969 40.71875 19.347656 39.757812 19.8125 C 38.65625 20.34375 37.671875 21.441406 37.160156 22.410156 C 36.121094 24.335938 36.84375 27.476562 38.542969 29.207031 C 39.832031 30.519531 41.59375 31.070312 43.496094 30.015625 C 43.847656 29.824219 44.183594 29.597656 44.511719 29.355469 C 45.183594 28.859375 45.816406 28.28125 46.457031 27.777344 C 46.957031 27.371094 47.039062 26.640625 46.632812 26.136719 C 46.230469 25.636719 45.5 25.558594 44.996094 25.960938 C 44.464844 26.394531 43.941406 26.882812 43.390625 27.328125 C 43.066406 27.589844 42.734375 27.835938 42.382812 28.039062 C 41.257812 28.683594 40.257812 28.007812 39.628906 27.054688 C 38.910156 25.964844 38.574219 24.457031 39.113281 23.464844 C 39.390625 22.960938 39.871094 22.398438 40.429688 22.039062 C 40.792969 21.804688 41.203125 21.636719 41.589844 21.867188 C 42.144531 22.1875 42.859375 21.996094 43.179688 21.4375 C 43.5 20.878906 43.308594 20.167969 42.75 19.847656 Z M 42.75 19.847656 "/></g></g></g></g><mask id="5a1b01ce17"><g filter="url(#5a23b56d7e)"><rect x="0" width="638.25" y="0" height="236.249991" style="fill:#000000;fill-opacity:0.4;stroke:none;"/></g></mask></g><g clip-rule="nonzero" clip-path="url(#ae4b3cf70d)"><g clip-rule="nonzero" clip-path="url(#5ff113cbd2)"><path style=" stroke:none;fill-rule:nonzero;fill:#f2b600;fill-opacity:1;" d="M -29.660156 234.511719 L 376.089844 219.585938 L 377.863281 267.8125 L -27.886719 282.734375 Z M -29.660156 234.511719 "/></g></g><g clip-rule="nonzero" clip-path="url(#e35d13af28)"><g clip-rule="nonzero" clip-path="url(#119f7e3769)"><path style=" stroke:none;fill-rule:nonzero;fill:#0094d3;fill-opacity:1;" d="M 208.390625 236.40625 L 665.6875 219.585938 L 667.234375 261.605469 L 209.9375 278.425781 Z M 208.390625 236.40625 "/></g></g></g></svg>